# xmcd CD database file
#
# Track frame offsets:
#	150
#	14565
#	28910
#	42279
#	52823
#	64781
#	76676
#	85639
#	98263
#	117721
#	132838
#	147691
#	160810
#	175293
#	189017
#	200856
#
# Disc length: 2847 seconds
#
# Submitted via: cddb-tool 0.4.5
#
#blues,classical,country,data,folk,jazz,newage,reggae,rock,soundtrack,misc
# Revision: 0
# Processed by: cddbd v1.5.1PL2 Copyright (c) Steve Scherf et al.
#
DISCID=d30b1d10
DTITLE=Various Artist - Chansons De France Vol.2 CD7
DYEAR=2005
DGENRE=Chanson
TTITLE0=Josephine Baker - J'ai Deux Amours
TTITLE1=Yves Montand - Ma Douce Vallée
TTITLE2=Lucienne Boyer - Parlez-Moi D'amour
TTITLE3=Line Renaud - Il N'était Pas Sentimental
TTITLE4=Fernandel - Félicie Aussi
TTITLE5=Tino Rossi - Ave Maria
TTITLE6=Charles Aznavour - Quand Elle Chante
TTITLE7=Georgius - Le Genre De La Maison
TTITLE8=Edith Piaf - J'm'en Fous Pas Mal
TTITLE9=Léo Ferré - Les Forains
TTITLE10=Georges Brassens - Brave Margot
TTITLE11=Pills and Tabet - 27, Rue Des Acacias
TTITLE12=André Claveau - J'ai Pleuré Sur Tes Pas
TTITLE13=Damia - Berceuse Tendre
TTITLE14=Maurice Chevalier - Le Chapeau De Zozo
TTITLE15=Yves Montand - Il Chantait
EXTD=
EXTT0=
EXTT1=
EXTT2=
EXTT3=
EXTT4=
EXTT5=
EXTT6=
EXTT7=
EXTT8=
EXTT9=
EXTT10=
EXTT11=
EXTT12=
EXTT13=
EXTT14=
EXTT15=
PLAYORDER=
